<svg id="Capa_1" data-name="Capa 1" xmlns="http://www.w3.org/2000/svg" viewBox="0 0 2000 1051.67"><defs><style>.cls-1{fill:#ff0005;}</style></defs><title>vector</title><path class="cls-1" d="M1576.5,23.5l-144,586c-1,3-1,0-1,0l-145-587h-425v216c-65-255-392-238-392-238-457-7-429,349-429,349v4h280c9-109,92-120,92-120,135-23,158,46,158,46,48,119-99,125-99,125h-112v196l70,1c146-5,136,107,136,107-6,109-121,108-121,108-165,0-152-185-152-185l-292,1c-13,475,476,416,476,416,320-3,386-214,386-214v195h288v-634l155,634,252-1,156-632,1,633h286V22.5Zm-715,585s-36-86-113-116c0,0,82-28,106-114l7-19Z"/></svg>