<svg id="Capa_1" data-name="Capa 1" xmlns="http://www.w3.org/2000/svg" viewBox="0 0 1626.8 1051.67"><defs><style>.cls-1{fill:#f41a2c;}</style></defs><title>vector copia</title><path class="cls-1" d="M1137.14,160.05c-352.83-360.11-652.53,0-652.53,0L172.16,730.68H707.79l19.13-131.12H897l17,131.12h535.62ZM743.92,453.67,782.18,185.9h55.26L880,453.67Z"/><path class="cls-1" d="M1021.24,980.13V813.93H917.09V1026.3L804.44,813.93H696L600.39,991.21l-63.77-66.48,102-110.8H515.37l-48.89,53.55-44.63-53.55H292.19l102,110.8-61.64,62.79L236.93,813.93H130.65L1,1052.15V1054H113.65l17-35.09h102l17,35.09H400.59l63.77-72,59.51,70.17h153l17-35.08H798.06l17,36.93,333.7-1.85v-72ZM149.78,958,188,874.87,224.18,958Zm561.13,0,40.39-83.1L793.81,958Z"/><polygon class="cls-1" points="1060.62 815.62 1060.62 883.95 1154.14 883.95 1154.14 1052 1258.29 1052 1258.29 883.95 1351.81 883.95 1351.81 815.62 1060.62 815.62"/><path class="cls-1" d="M1500.6,815.62H1390.07L1262.54,1052h112.65l14.88-35.09h104.15l17,35.09H1626ZM1411.33,956l38.25-83.1,38.26,83.1Z"/></svg>